{
	"asset":{
		"copyright":"qukuri",
		"generator":"Khronos glTF Blender I/O v4.2.70",
		"version":"2.0"
	},
	"scene":0,
	"scenes":[
		{
			"extras":{
				"pbr_material_settings":{},
				"camera_settings":{}
			},
			"name":"Scene",
			"nodes":[
				1
			]
		}
	],
	"nodes":[
		{
			"mesh":0,
			"name":"Cylinder",
			"scale":[
				4.107079982757568,
				4.107079982757568,
				4.107079982757568
			],
			"translation":[
				0,
				-6.353365898132324,
				0
			]
		},
		{
			"children":[
				0
			],
			"mesh":1,
			"name":"Sphere",
			"scale":[
				0.17043739557266235,
				0.17043739557266235,
				0.17043739557266235
			],
			"translation":[
				0,
				2.0828511714935303,
				0
			]
		}
	],
	"materials":[
		{
			"doubleSided":true,
			"name":"RED"
		},
		{
			"doubleSided":true,
			"name":"WHITE"
		}
	],
	"meshes":[
		{
			"name":"Cylinder",
			"primitives":[
				{
					"attributes":{
						"POSITION":0,
						"NORMAL":1
					},
					"indices":2,
					"material":0
				},
				{
					"attributes":{
						"POSITION":0,
						"NORMAL":1
					},
					"indices":3,
					"material":1
				}
			]
		},
		{
			"name":"Sphere",
			"primitives":[
				{
					"attributes":{
						"POSITION":4,
						"NORMAL":5
					},
					"indices":6,
					"material":1
				}
			]
		}
	],
	"accessors":[
		{
			"bufferView":0,
			"componentType":5126,
			"count":2240,
			"max":[
				1.0446659326553345,
				1.359004259109497,
				1.0446659326553345
			],
			"min":[
				-1.0446659326553345,
				-1.3059395551681519,
				-1.044665813446045
			],
			"type":"VEC3"
		},
		{
			"bufferView":1,
			"componentType":5126,
			"count":2240,
			"type":"VEC3"
		},
		{
			"bufferView":2,
			"componentType":5123,
			"count":11520,
			"type":"SCALAR"
		},
		{
			"bufferView":3,
			"componentType":5123,
			"count":1536,
			"type":"SCALAR"
		},
		{
			"bufferView":4,
			"componentType":5126,
			"count":7938,
			"max":[
				0.9872313737869263,
				0.997577428817749,
				0.9872314929962158
			],
			"min":[
				-0.9872310161590576,
				-0.997577428817749,
				-0.9872304797172546
			],
			"type":"VEC3"
		},
		{
			"bufferView":5,
			"componentType":5126,
			"count":7938,
			"type":"VEC3"
		},
		{
			"bufferView":6,
			"componentType":5123,
			"count":47616,
			"type":"SCALAR"
		}
	],
	"bufferViews":[
		{
			"buffer":0,
			"byteLength":26880,
			"byteOffset":0,
			"target":34962
		},
		{
			"buffer":0,
			"byteLength":26880,
			"byteOffset":26880,
			"target":34962
		},
		{
			"buffer":0,
			"byteLength":23040,
			"byteOffset":53760,
			"target":34963
		},
		{
			"buffer":0,
			"byteLength":3072,
			"byteOffset":76800,
			"target":34963
		},
		{
			"buffer":0,
			"byteLength":95256,
			"byteOffset":79872,
			"target":34962
		},
		{
			"buffer":0,
			"byteLength":95256,
			"byteOffset":175128,
			"target":34962
		},
		{
			"buffer":0,
			"byteLength":95232,
			"byteOffset":270384,
			"target":34963
		}
	],
	"buffers":[
		{
			"byteLength":365616,
			"uri":"hat.bin"
		}
	]
}
